<?xml version="1.0" encoding="UTF-8" standalone="no"?>
<!-- Created with Inkscape (http://www.inkscape.org/) -->

<svg
   xmlns:dc="http://purl.org/dc/elements/1.1/"
   xmlns:cc="http://creativecommons.org/ns#"
   xmlns:rdf="http://www.w3.org/1999/02/22-rdf-syntax-ns#"
   xmlns:svg="http://www.w3.org/2000/svg"
   xmlns="http://www.w3.org/2000/svg"
   xmlns:sodipodi="http://sodipodi.sourceforge.net/DTD/sodipodi-0.dtd"
   xmlns:inkscape="http://www.inkscape.org/namespaces/inkscape"
   width="700"
   height="700"
   viewBox="0 0 185.20834 185.20834"
   version="1.1"
   id="svg1754"
   inkscape:export-filename="C:\Users\alex\sites\lei-de-incentivo-a-cultura-logo-0.png"
   inkscape:export-xdpi="561.73712"
   inkscape:export-ydpi="561.73712"
   inkscape:version="0.92.3 (2405546, 2018-03-11)"
   sodipodi:docname="lei-de-incentivo-a-cultura-logo.svg">
  <defs
     id="defs1748">
    <radialGradient
       fx="0"
       fy="0"
       cx="0"
       cy="0"
       r="1"
       gradientUnits="userSpaceOnUse"
       gradientTransform="matrix(-25.296383,0,0,25.296383,319.57812,281.28125)"
       spreadMethod="pad"
       id="radialGradient272">
      <stop
         style="stop-opacity:1;stop-color:#ffc717"
         offset="0"
         id="stop260" />
      <stop
         style="stop-opacity:1;stop-color:#ffc717"
         offset="0.0268815"
         id="stop262" />
      <stop
         style="stop-opacity:1;stop-color:#388d43"
         offset="0.56677518"
         id="stop264" />
      <stop
         style="stop-opacity:1;stop-color:#388d43"
         offset="0.639785"
         id="stop266" />
      <stop
         style="stop-opacity:1;stop-color:#135996"
         offset="0.99807241"
         id="stop268" />
      <stop
         style="stop-opacity:1;stop-color:#135996"
         offset="1"
         id="stop270" />
    </radialGradient>
    <clipPath
       clipPathUnits="userSpaceOnUse"
       id="clipPath164">
      <path
         d="M 0,0 H 411.025 V 364.024 H 0 Z"
         id="path162"
         inkscape:connector-curvature="0" />
    </clipPath>
  </defs>
  <sodipodi:namedview
     id="base"
     pagecolor="#ffffff"
     bordercolor="#666666"
     borderopacity="1.0"
     inkscape:pageopacity="0.0"
     inkscape:pageshadow="2"
     inkscape:zoom="0.7"
     inkscape:cx="456.37594"
     inkscape:cy="331.18849"
     inkscape:document-units="mm"
     inkscape:current-layer="layer1"
     showgrid="false"
     units="px"
     inkscape:window-width="1600"
     inkscape:window-height="838"
     inkscape:window-x="-8"
     inkscape:window-y="-8"
     inkscape:window-maximized="1" />
  <metadata
     id="metadata1751">
    <rdf:RDF>
      <cc:Work
         rdf:about="">
        <dc:format>image/svg+xml</dc:format>
        <dc:type
           rdf:resource="http://purl.org/dc/dcmitype/StillImage" />
        <dc:title></dc:title>
      </cc:Work>
    </rdf:RDF>
  </metadata>
  <g
     inkscape:label="Camada 1"
     inkscape:groupmode="layer"
     id="layer1"
     transform="translate(0,-111.79161)">
    <g
       transform="matrix(1.4515486,0,0,-1.4515486,-371.64092,593.23241)"
       id="g158"
       inkscape:export-xdpi="95.679451"
       inkscape:export-ydpi="95.679451">
      <g
         id="g160"
         clip-path="url(#clipPath164)">
        <g
           id="g166"
           transform="translate(283.25,236.7012)">
          <path
             d="M 0,0 C 0,0.672 0.122,1.336 0.365,1.992 0.607,2.648 0.962,3.235 1.427,3.751 1.892,4.268 2.46,4.687 3.132,5.007 3.804,5.328 4.568,5.488 5.427,5.488 6.439,5.488 7.315,5.266 8.054,4.821 8.793,4.377 9.343,3.798 9.705,3.085 L 8.062,1.953 C 7.917,2.263 7.741,2.524 7.535,2.736 7.328,2.948 7.105,3.116 6.868,3.24 6.63,3.364 6.382,3.455 6.124,3.511 5.865,3.568 5.612,3.597 5.364,3.597 4.827,3.597 4.359,3.488 3.961,3.271 3.563,3.054 3.232,2.772 2.969,2.426 2.706,2.08 2.507,1.687 2.372,1.248 2.238,0.809 2.171,0.372 2.171,-0.062 c 0,-0.486 0.077,-0.953 0.232,-1.403 0.156,-0.45 0.375,-0.845 0.66,-1.186 0.284,-0.341 0.625,-0.615 1.022,-0.822 0.398,-0.206 0.835,-0.31 1.311,-0.31 0.248,0 0.505,0.032 0.775,0.094 0.268,0.062 0.524,0.16 0.766,0.294 0.244,0.134 0.468,0.308 0.675,0.52 0.206,0.211 0.372,0.467 0.496,0.767 L 9.86,-3.116 C 9.685,-3.529 9.434,-3.894 9.108,-4.209 8.782,-4.524 8.416,-4.79 8.008,-5.007 7.599,-5.224 7.162,-5.39 6.697,-5.503 6.232,-5.617 5.777,-5.674 5.333,-5.674 c -0.785,0 -1.503,0.165 -2.154,0.496 -0.652,0.331 -1.212,0.762 -1.683,1.295 -0.47,0.532 -0.837,1.136 -1.1,1.814 C 0.132,-1.393 0,-0.703 0,0"
             style="fill:#6d6d6d;fill-opacity:1;fill-rule:nonzero;stroke:none"
             id="path168"
             inkscape:connector-curvature="0" />
        </g>
        <g
           id="g170"
           transform="translate(299.3418,232.9341)">
          <path
             d="m 0,0 c 0.506,0 0.934,0.104 1.279,0.31 0.346,0.207 0.625,0.475 0.837,0.806 0.212,0.331 0.363,0.711 0.449,1.14 0.088,0.429 0.132,0.87 0.132,1.325 V 9.193 H 4.821 V 3.581 C 4.821,2.827 4.73,2.119 4.55,1.458 4.369,0.796 4.085,0.217 3.697,-0.279 3.311,-0.775 2.812,-1.168 2.201,-1.457 1.592,-1.747 0.863,-1.891 0.017,-1.891 c -0.88,0 -1.625,0.152 -2.242,0.457 -0.615,0.305 -1.113,0.708 -1.496,1.209 -0.383,0.501 -0.658,1.083 -0.829,1.745 -0.171,0.661 -0.256,1.348 -0.256,2.061 v 5.612 h 2.14 V 3.581 c 0,-0.465 0.043,-0.912 0.131,-1.341 0.088,-0.429 0.238,-0.809 0.45,-1.139 C -1.873,0.77 -1.597,0.504 -1.256,0.302 -0.915,0.101 -0.496,0 0,0"
             style="fill:#6d6d6d;fill-opacity:1;fill-rule:nonzero;stroke:none"
             id="path172"
             inkscape:connector-curvature="0" />
        </g>
        <g
           id="g174"
           transform="translate(306.3184,231.1201)">
          <path
             d="M 0,0 V 11.006 H 2.139 V 1.875 H 7.751 V 0 Z"
             style="fill:#6d6d6d;fill-opacity:1;fill-rule:nonzero;stroke:none"
             id="path176"
             inkscape:connector-curvature="0" />
        </g>
        <g
           id="g178"
           transform="translate(323.1377,240.251)">
          <path
             d="M 0,0 H -3.519 V -9.131 H -5.643 V 0 H -9.162 V 1.875 H 0 Z"
             style="fill:#6d6d6d;fill-opacity:1;fill-rule:nonzero;stroke:none"
             id="path180"
             inkscape:connector-curvature="0" />
        </g>
        <g
           id="g182"
           transform="translate(329.54,232.9341)">
          <path
             d="m 0,0 c 0.507,0 0.933,0.104 1.279,0.31 0.346,0.207 0.625,0.475 0.837,0.806 0.212,0.331 0.362,0.711 0.449,1.14 0.088,0.429 0.132,0.87 0.132,1.325 V 9.193 H 4.821 V 3.581 C 4.821,2.827 4.729,2.119 4.55,1.458 4.369,0.796 4.085,0.217 3.697,-0.279 3.31,-0.775 2.812,-1.168 2.201,-1.457 1.592,-1.747 0.863,-1.891 0.016,-1.891 c -0.879,0 -1.625,0.152 -2.241,0.457 -0.615,0.305 -1.113,0.708 -1.496,1.209 -0.383,0.501 -0.658,1.083 -0.829,1.745 -0.171,0.661 -0.256,1.348 -0.256,2.061 v 5.612 h 2.14 V 3.581 c 0,-0.465 0.044,-0.912 0.132,-1.341 C -2.446,1.811 -2.297,1.431 -2.085,1.101 -1.873,0.77 -1.597,0.504 -1.256,0.302 -0.914,0.101 -0.496,0 0,0"
             style="fill:#6d6d6d;fill-opacity:1;fill-rule:nonzero;stroke:none"
             id="path184"
             inkscape:connector-curvature="0" />
        </g>
        <g
           id="g186"
           transform="translate(338.6553,236.6851)">
          <path
             d="m 0,0 h 2.683 c 0.195,0 0.379,0.047 0.548,0.14 0.171,0.093 0.32,0.219 0.444,0.38 0.123,0.16 0.221,0.348 0.294,0.565 0.072,0.217 0.108,0.45 0.108,0.698 0,0.258 -0.041,0.496 -0.124,0.713 C 3.87,2.713 3.76,2.901 3.62,3.062 3.479,3.222 3.319,3.346 3.14,3.434 2.959,3.521 2.774,3.566 2.589,3.566 H 0 Z M -2.14,-5.565 V 5.441 H 2.729 C 3.234,5.441 3.703,5.335 4.132,5.124 4.561,4.912 4.93,4.633 5.239,4.287 5.55,3.94 5.793,3.547 5.969,3.108 6.146,2.669 6.231,2.227 6.231,1.783 6.231,1.07 6.054,0.421 5.696,-0.163 5.341,-0.747 4.856,-1.168 4.248,-1.426 L 6.759,-5.565 H 4.355 l -2.248,3.69 H 0 v -3.69 z"
             style="fill:#6d6d6d;fill-opacity:1;fill-rule:nonzero;stroke:none"
             id="path188"
             inkscape:connector-curvature="0" />
        </g>
        <g
           id="g190"
           transform="translate(352.7939,235.3682)">
          <path
             d="M 0,0 -1.521,4.325 -3.101,0 Z m -2.465,6.759 h 1.891 L 3.611,-4.248 H 1.41 l -1.022,2.744 h -3.845 l -1.008,-2.744 h -2.201 z"
             style="fill:#6d6d6d;fill-opacity:1;fill-rule:nonzero;stroke:none"
             id="path192"
             inkscape:connector-curvature="0" />
        </g>
        <g
           id="g194"
           transform="translate(285.8164,245.1519)">
          <path
             d="M 0,0 V 5.803 H 0.734 V 0.654 H 3.973 V 0 Z"
             style="fill:#6d6d6d;fill-opacity:1;fill-rule:nonzero;stroke:none"
             id="path196"
             inkscape:connector-curvature="0" />
        </g>
        <g
           id="g198"
           transform="translate(293.7686,247.5708)">
          <path
             d="m 0,0 c -0.017,0.202 -0.066,0.389 -0.15,0.56 -0.085,0.172 -0.193,0.317 -0.321,0.438 -0.128,0.119 -0.275,0.213 -0.445,0.281 -0.169,0.069 -0.349,0.103 -0.538,0.103 -0.192,0 -0.371,-0.034 -0.54,-0.103 C -2.163,1.211 -2.313,1.116 -2.439,0.993 -2.567,0.871 -2.672,0.725 -2.751,0.556 -2.829,0.387 -2.877,0.202 -2.896,0 Z m -1.463,-2.501 c -0.321,0 -0.615,0.059 -0.883,0.176 -0.266,0.117 -0.496,0.276 -0.686,0.478 -0.192,0.201 -0.339,0.437 -0.447,0.707 -0.105,0.27 -0.159,0.555 -0.159,0.854 0,0.3 0.054,0.583 0.159,0.85 0.108,0.267 0.257,0.501 0.452,0.703 0.192,0.202 0.423,0.361 0.689,0.478 0.268,0.117 0.563,0.176 0.884,0.176 0.32,0 0.613,-0.06 0.879,-0.18 C -0.312,1.621 -0.088,1.462 0.099,1.263 0.283,1.064 0.427,0.833 0.527,0.568 0.629,0.304 0.679,0.03 0.679,-0.253 0.679,-0.313 0.678,-0.368 0.675,-0.417 0.672,-0.466 0.667,-0.504 0.662,-0.531 h -3.539 c 0.017,-0.213 0.064,-0.406 0.148,-0.58 0.082,-0.175 0.187,-0.325 0.319,-0.45 0.13,-0.126 0.277,-0.223 0.444,-0.294 0.166,-0.071 0.342,-0.106 0.529,-0.106 0.128,0 0.257,0.017 0.382,0.053 0.125,0.035 0.243,0.083 0.353,0.143 0.107,0.059 0.205,0.133 0.29,0.221 0.084,0.086 0.147,0.185 0.191,0.294 L 0.4,-1.422 C 0.329,-1.58 0.232,-1.725 0.11,-1.855 -0.013,-1.986 -0.153,-2.099 -0.314,-2.194 -0.476,-2.29 -0.653,-2.365 -0.851,-2.419 c -0.196,-0.055 -0.4,-0.082 -0.612,-0.082"
             style="fill:#6d6d6d;fill-opacity:1;fill-rule:nonzero;stroke:none"
             id="path200"
             inkscape:connector-curvature="0" />
        </g>
        <path
           d="m 295.248,249.419 h 0.72 v -4.267 h -0.72 z m 0,1.7 h 0.72 v -0.899 h -0.72 z"
           style="fill:#6d6d6d;fill-opacity:1;fill-rule:nonzero;stroke:none"
           id="path202"
           inkscape:connector-curvature="0" />
        <g
           id="g204"
           transform="translate(301.125,245.6909)">
          <path
             d="m 0,0 c 0.131,0 0.266,0.025 0.404,0.074 0.14,0.049 0.271,0.117 0.393,0.204 0.123,0.087 0.229,0.189 0.319,0.306 0.09,0.118 0.149,0.242 0.176,0.373 V 2.183 C 1.242,2.319 1.169,2.448 1.071,2.571 0.973,2.693 0.862,2.8 0.74,2.89 0.617,2.979 0.486,3.05 0.348,3.102 0.209,3.154 0.071,3.18 -0.065,3.18 -0.277,3.18 -0.47,3.135 -0.642,3.045 -0.813,2.955 -0.96,2.835 -1.083,2.685 -1.205,2.535 -1.3,2.364 -1.365,2.17 -1.43,1.977 -1.463,1.779 -1.463,1.578 c 0,-0.213 0.038,-0.416 0.114,-0.609 0.077,-0.194 0.18,-0.361 0.311,-0.503 C -0.907,0.324 -0.753,0.211 -0.576,0.127 -0.399,0.042 -0.207,0 0,0 m -0.172,-0.621 c -0.294,0 -0.566,0.06 -0.816,0.18 -0.251,0.12 -0.467,0.28 -0.647,0.482 -0.179,0.202 -0.32,0.436 -0.421,0.703 -0.1,0.267 -0.151,0.548 -0.151,0.842 0,0.299 0.048,0.584 0.144,0.854 0.094,0.27 0.228,0.505 0.4,0.707 0.172,0.202 0.376,0.361 0.613,0.478 0.237,0.117 0.497,0.176 0.78,0.176 0.344,0 0.65,-0.09 0.92,-0.27 C 0.92,3.352 1.134,3.133 1.292,2.877 V 5.428 H 2.011 V 0.343 C 2.011,0.174 2.087,0.087 2.24,0.082 V -0.539 C 2.163,-0.55 2.103,-0.558 2.056,-0.564 2.01,-0.569 1.965,-0.572 1.921,-0.572 c -0.142,0 -0.266,0.048 -0.372,0.143 -0.106,0.096 -0.159,0.206 -0.159,0.331 v 0.36 C 1.221,-0.016 0.996,-0.233 0.716,-0.388 0.435,-0.543 0.139,-0.621 -0.172,-0.621"
             style="fill:#6d6d6d;fill-opacity:1;fill-rule:nonzero;stroke:none"
             id="path206"
             inkscape:connector-curvature="0" />
        </g>
        <g
           id="g208"
           transform="translate(307.6875,247.5708)">
          <path
             d="m 0,0 c -0.017,0.202 -0.065,0.389 -0.15,0.56 -0.084,0.172 -0.192,0.317 -0.32,0.438 -0.128,0.119 -0.275,0.213 -0.444,0.281 -0.17,0.069 -0.351,0.103 -0.54,0.103 -0.192,0 -0.37,-0.034 -0.539,-0.103 C -2.162,1.211 -2.313,1.116 -2.438,0.993 -2.566,0.871 -2.672,0.725 -2.75,0.556 -2.828,0.387 -2.877,0.202 -2.894,0 Z m -1.463,-2.501 c -0.32,0 -0.615,0.059 -0.883,0.176 -0.265,0.117 -0.496,0.276 -0.685,0.478 -0.193,0.201 -0.339,0.437 -0.448,0.707 -0.105,0.27 -0.158,0.555 -0.158,0.854 0,0.3 0.053,0.583 0.158,0.85 0.109,0.267 0.257,0.501 0.452,0.703 0.192,0.202 0.423,0.361 0.689,0.478 0.269,0.117 0.563,0.176 0.884,0.176 0.32,0 0.613,-0.06 0.879,-0.18 C -0.312,1.621 -0.087,1.462 0.1,1.263 0.283,1.064 0.428,0.833 0.527,0.568 0.629,0.304 0.68,0.03 0.68,-0.253 0.68,-0.313 0.678,-0.368 0.676,-0.417 0.673,-0.466 0.668,-0.504 0.662,-0.531 h -3.539 c 0.018,-0.213 0.064,-0.406 0.148,-0.58 0.082,-0.175 0.187,-0.325 0.319,-0.45 0.131,-0.126 0.278,-0.223 0.444,-0.294 0.166,-0.071 0.343,-0.106 0.529,-0.106 0.129,0 0.257,0.017 0.382,0.053 0.126,0.035 0.243,0.083 0.353,0.143 0.108,0.059 0.206,0.133 0.29,0.221 0.085,0.086 0.147,0.185 0.191,0.294 L 0.4,-1.422 C 0.33,-1.58 0.233,-1.725 0.11,-1.855 -0.012,-1.986 -0.153,-2.099 -0.313,-2.194 -0.476,-2.29 -0.652,-2.365 -0.85,-2.419 -1.046,-2.474 -1.25,-2.501 -1.463,-2.501"
             style="fill:#6d6d6d;fill-opacity:1;fill-rule:nonzero;stroke:none"
             id="path210"
             inkscape:connector-curvature="0" />
        </g>
        <path
           d="m 311.351,250.956 h 0.735 v -5.803 h -0.735 z"
           style="fill:#6d6d6d;fill-opacity:1;fill-rule:nonzero;stroke:none"
           id="path212"
           inkscape:connector-curvature="0" />
        <g
           id="g214"
           transform="translate(317.0625,245.1519)">
          <path
             d="m 0,0 h -0.72 v 2.386 c 0,0.458 -0.068,0.791 -0.208,0.998 -0.137,0.207 -0.349,0.31 -0.634,0.31 -0.145,0 -0.292,-0.028 -0.441,-0.086 C -2.148,3.551 -2.288,3.474 -2.419,3.375 -2.55,3.277 -2.664,3.16 -2.763,3.024 -2.859,2.888 -2.935,2.738 -2.982,2.575 V 0 h -0.719 v 4.267 h 0.652 V 3.351 c 0.169,0.299 0.413,0.54 0.733,0.719 0.319,0.18 0.666,0.27 1.042,0.27 0.245,0 0.45,-0.045 0.613,-0.135 C -0.498,4.115 -0.367,3.99 -0.27,3.829 -0.172,3.668 -0.104,3.479 -0.062,3.261 -0.021,3.043 0,2.806 0,2.55 Z"
             style="fill:#6d6d6d;fill-opacity:1;fill-rule:nonzero;stroke:none"
             id="path216"
             inkscape:connector-curvature="0" />
        </g>
        <g
           id="g218"
           transform="translate(317.8975,247.293)">
          <path
             d="m 0,0 c 0,0.3 0.052,0.583 0.154,0.85 0.105,0.267 0.25,0.5 0.443,0.699 0.189,0.199 0.418,0.357 0.681,0.474 0.265,0.117 0.561,0.176 0.887,0.176 0.426,0 0.791,-0.094 1.1,-0.282 C 3.572,1.729 3.806,1.477 3.964,1.161 L 3.261,0.94 C 3.151,1.142 2.999,1.298 2.804,1.41 2.606,1.522 2.389,1.578 2.148,1.578 1.952,1.578 1.768,1.538 1.594,1.459 1.419,1.38 1.271,1.27 1.144,1.128 1.019,0.986 0.919,0.82 0.846,0.629 0.771,0.439 0.734,0.229 0.734,0 c 0,-0.223 0.038,-0.433 0.116,-0.629 0.076,-0.196 0.177,-0.367 0.305,-0.511 0.128,-0.145 0.28,-0.257 0.449,-0.339 0.172,-0.082 0.357,-0.123 0.552,-0.123 0.126,0 0.25,0.018 0.372,0.053 0.123,0.036 0.236,0.083 0.335,0.143 0.102,0.06 0.191,0.13 0.267,0.209 0.075,0.079 0.131,0.164 0.164,0.257 L 3.996,-1.152 C 3.932,-1.311 3.84,-1.455 3.723,-1.585 3.604,-1.716 3.468,-1.828 3.31,-1.92 3.151,-2.013 2.977,-2.087 2.782,-2.141 2.589,-2.196 2.387,-2.223 2.174,-2.223 c -0.321,0 -0.616,0.06 -0.884,0.18 -0.267,0.12 -0.495,0.28 -0.686,0.482 C 0.413,-1.359 0.266,-1.124 0.158,-0.854 0.053,-0.584 0,-0.299 0,0"
             style="fill:#6d6d6d;fill-opacity:1;fill-rule:nonzero;stroke:none"
             id="path220"
             inkscape:connector-curvature="0" />
        </g>
        <g
           id="g222"
           transform="translate(326.0215,247.5708)">
          <path
             d="m 0,0 c -0.017,0.202 -0.066,0.389 -0.151,0.56 -0.084,0.172 -0.192,0.317 -0.32,0.438 -0.128,0.119 -0.275,0.213 -0.444,0.281 -0.17,0.069 -0.35,0.103 -0.54,0.103 -0.191,0 -0.37,-0.034 -0.539,-0.103 C -2.163,1.211 -2.313,1.116 -2.439,0.993 -2.567,0.871 -2.672,0.725 -2.75,0.556 -2.829,0.387 -2.878,0.202 -2.895,0 Z m -1.464,-2.501 c -0.32,0 -0.615,0.059 -0.883,0.176 -0.265,0.117 -0.496,0.276 -0.685,0.478 -0.192,0.201 -0.339,0.437 -0.447,0.707 -0.106,0.27 -0.159,0.555 -0.159,0.854 0,0.3 0.053,0.583 0.159,0.85 0.108,0.267 0.256,0.501 0.451,0.703 0.192,0.202 0.424,0.361 0.689,0.478 0.269,0.117 0.563,0.176 0.884,0.176 0.321,0 0.613,-0.06 0.879,-0.18 C -0.312,1.621 -0.088,1.462 0.099,1.263 0.282,1.064 0.427,0.833 0.526,0.568 0.628,0.304 0.679,0.03 0.679,-0.253 0.679,-0.313 0.677,-0.368 0.675,-0.417 0.672,-0.466 0.668,-0.504 0.661,-0.531 h -3.539 c 0.018,-0.213 0.065,-0.406 0.149,-0.58 0.081,-0.175 0.186,-0.325 0.318,-0.45 0.131,-0.126 0.278,-0.223 0.444,-0.294 0.166,-0.071 0.342,-0.106 0.53,-0.106 0.128,0 0.256,0.017 0.381,0.053 0.126,0.035 0.244,0.083 0.353,0.143 0.108,0.059 0.206,0.133 0.291,0.221 0.084,0.086 0.147,0.185 0.19,0.294 L 0.399,-1.422 C 0.329,-1.58 0.232,-1.725 0.109,-1.855 -0.013,-1.986 -0.154,-2.099 -0.314,-2.194 -0.477,-2.29 -0.653,-2.365 -0.851,-2.419 -1.047,-2.474 -1.25,-2.501 -1.464,-2.501"
             style="fill:#6d6d6d;fill-opacity:1;fill-rule:nonzero;stroke:none"
             id="path224"
             inkscape:connector-curvature="0" />
        </g>
        <g
           id="g226"
           transform="translate(331.2031,245.1519)">
          <path
             d="m 0,0 h -0.719 v 2.386 c 0,0.458 -0.069,0.791 -0.208,0.998 -0.139,0.207 -0.35,0.31 -0.635,0.31 -0.146,0 -0.292,-0.028 -0.44,-0.086 C -2.149,3.551 -2.288,3.474 -2.419,3.375 -2.55,3.277 -2.664,3.16 -2.762,3.024 -2.86,2.888 -2.936,2.738 -2.982,2.575 V 0 h -0.72 v 4.267 h 0.654 V 3.351 c 0.169,0.299 0.412,0.54 0.732,0.719 0.318,0.18 0.666,0.27 1.042,0.27 0.245,0 0.449,-0.045 0.612,-0.135 0.164,-0.09 0.295,-0.215 0.391,-0.376 0.1,-0.161 0.167,-0.35 0.209,-0.568 C -0.021,3.043 0,2.806 0,2.55 Z"
             style="fill:#6d6d6d;fill-opacity:1;fill-rule:nonzero;stroke:none"
             id="path228"
             inkscape:connector-curvature="0" />
        </g>
        <g
           id="g230"
           transform="translate(334.4893,245.3652)">
          <path
             d="m 0,0 c -0.044,-0.022 -0.102,-0.048 -0.171,-0.078 -0.071,-0.03 -0.151,-0.06 -0.242,-0.089 -0.09,-0.031 -0.189,-0.055 -0.294,-0.074 -0.106,-0.019 -0.216,-0.029 -0.331,-0.029 -0.262,0 -0.487,0.072 -0.678,0.217 -0.191,0.144 -0.286,0.369 -0.286,0.674 V 3.49 h -0.581 v 0.564 h 0.581 v 1.422 h 0.719 V 4.054 h 0.956 V 3.49 H -1.283 V 0.842 c 0.011,-0.158 0.061,-0.273 0.155,-0.343 0.093,-0.071 0.201,-0.107 0.326,-0.107 0.143,0 0.272,0.024 0.389,0.07 0.117,0.046 0.198,0.082 0.242,0.11 z"
             style="fill:#6d6d6d;fill-opacity:1;fill-rule:nonzero;stroke:none"
             id="path232"
             inkscape:connector-curvature="0" />
        </g>
        <path
           d="m 335.16,249.419 h 0.719 v -4.267 h -0.719 z m 0,1.7 h 0.719 v -0.899 h -0.719 z"
           style="fill:#6d6d6d;fill-opacity:1;fill-rule:nonzero;stroke:none"
           id="path234"
           inkscape:connector-curvature="0" />
        <g
           id="g236"
           transform="translate(338.2734,245.1519)">
          <path
             d="m 0,0 -1.686,4.267 h 0.747 L 0.408,0.629 1.766,4.267 H 2.451 L 0.769,0 Z"
             style="fill:#6d6d6d;fill-opacity:1;fill-rule:nonzero;stroke:none"
             id="path238"
             inkscape:connector-curvature="0" />
        </g>
        <g
           id="g240"
           transform="translate(341.7393,247.269)">
          <path
             d="m 0,0 c 0,-0.224 0.037,-0.431 0.109,-0.621 0.076,-0.191 0.176,-0.357 0.304,-0.499 0.128,-0.142 0.276,-0.253 0.448,-0.335 0.173,-0.082 0.357,-0.123 0.553,-0.123 0.195,0 0.38,0.041 0.552,0.123 0.172,0.082 0.323,0.195 0.454,0.339 0.13,0.145 0.231,0.314 0.306,0.507 C 2.8,-0.416 2.837,-0.207 2.837,0.017 2.837,0.234 2.8,0.44 2.726,0.633 2.651,0.827 2.55,0.996 2.42,1.14 2.289,1.285 2.138,1.397 1.966,1.479 1.794,1.561 1.609,1.602 1.414,1.602 1.218,1.602 1.034,1.56 0.861,1.475 0.689,1.391 0.541,1.276 0.413,1.132 0.285,0.988 0.185,0.819 0.109,0.625 0.037,0.432 0,0.224 0,0 m 1.414,-2.199 c -0.321,0 -0.614,0.06 -0.879,0.18 -0.264,0.12 -0.49,0.281 -0.679,0.482 -0.187,0.202 -0.334,0.436 -0.436,0.704 -0.105,0.266 -0.155,0.547 -0.155,0.841 0,0.3 0.051,0.583 0.159,0.85 0.105,0.267 0.253,0.501 0.44,0.703 0.19,0.202 0.414,0.362 0.68,0.482 0.264,0.12 0.555,0.18 0.87,0.18 0.315,0 0.607,-0.06 0.875,-0.18 C 2.556,1.923 2.783,1.763 2.972,1.561 3.159,1.359 3.307,1.125 3.413,0.858 3.519,0.591 3.571,0.308 3.571,0.008 3.571,-0.286 3.521,-0.567 3.417,-0.833 3.313,-1.101 3.166,-1.335 2.976,-1.537 2.784,-1.738 2.557,-1.899 2.293,-2.019 2.027,-2.139 1.734,-2.199 1.414,-2.199"
             style="fill:#6d6d6d;fill-opacity:1;fill-rule:nonzero;stroke:none"
             id="path242"
             inkscape:connector-curvature="0" />
        </g>
        <g
           id="g244"
           transform="translate(348.9971,251.1191)">
          <path
             d="M 0,0 H 0.712 L 1.193,-0.826 0.728,-0.989 Z m 0.54,-5.509 c 0.256,0 0.494,0.047 0.715,0.143 0.221,0.095 0.389,0.222 0.503,0.38 0.103,0.103 0.155,0.21 0.155,0.319 v 0.629 c -0.35,0.136 -0.711,0.205 -1.087,0.205 -0.36,0 -0.653,-0.077 -0.879,-0.229 -0.226,-0.153 -0.339,-0.352 -0.339,-0.597 0,-0.12 0.023,-0.232 0.07,-0.335 0.046,-0.104 0.111,-0.194 0.196,-0.27 0.084,-0.076 0.184,-0.136 0.298,-0.18 0.114,-0.044 0.237,-0.065 0.368,-0.065 m -0.188,-0.54 c -0.202,0 -0.39,0.034 -0.564,0.102 -0.175,0.069 -0.326,0.162 -0.454,0.282 -0.128,0.12 -0.23,0.261 -0.302,0.421 -0.074,0.161 -0.11,0.337 -0.11,0.528 0,0.196 0.043,0.374 0.13,0.535 0.088,0.16 0.212,0.298 0.372,0.412 0.161,0.115 0.351,0.205 0.572,0.27 0.221,0.066 0.462,0.099 0.724,0.099 0.207,0 0.417,-0.019 0.629,-0.058 0.213,-0.038 0.4,-0.09 0.564,-0.155 v 0.343 c 0,0.349 -0.099,0.623 -0.294,0.822 -0.196,0.198 -0.473,0.298 -0.834,0.298 -0.431,0 -0.883,-0.166 -1.356,-0.498 l -0.239,0.465 c 0.551,0.371 1.105,0.556 1.661,0.556 0.56,0 0.998,-0.15 1.311,-0.449 0.314,-0.3 0.47,-0.722 0.47,-1.267 v -1.741 c 0,-0.169 0.076,-0.256 0.229,-0.262 V -5.967 C 2.785,-5.978 2.722,-5.986 2.673,-5.992 2.624,-5.997 2.572,-6 2.518,-6 2.376,-6 2.263,-5.958 2.179,-5.873 2.094,-5.789 2.044,-5.687 2.027,-5.566 L 2.011,-5.264 C 1.82,-5.521 1.579,-5.715 1.288,-5.849 0.996,-5.982 0.685,-6.049 0.352,-6.049"
             style="fill:#6d6d6d;fill-opacity:1;fill-rule:nonzero;stroke:none"
             id="path246"
             inkscape:connector-curvature="0" />
        </g>
      </g>
    </g>
    <g
       transform="matrix(1.4515486,0,0,-1.4515486,-371.64092,593.23241)"
       id="g248"
       inkscape:export-xdpi="95.679451"
       inkscape:export-ydpi="95.679451">
      <g
         id="g250">
        <g
           id="g256">
          <g
             id="g258">
            <path
               d="m 319.588,297.526 -13.535,7.201 -0.532,-15.322 -13.003,-8.121 13.003,-8.122 0.532,-15.322 13.535,7.202 13.535,-7.202 0.531,15.322 13.004,8.122 -13.004,8.121 -0.531,15.322 z"
               style="fill:url(#radialGradient272);stroke:none"
               id="path274"
               inkscape:connector-curvature="0" />
          </g>
        </g>
      </g>
    </g>
    <g
       id="g276"
       transform="matrix(1.4515486,0,0,-1.4515486,89.626989,184.93474)"
       inkscape:export-xdpi="95.679451"
       inkscape:export-ydpi="95.679451">
      <path
         d="m 0,0 -13.579,7.84 0.87,0.543 0.034,1.025 13.579,-7.839 v 15.68 l 0.908,-0.482 0.905,0.482 V 1.569 L 16.296,9.408 16.332,8.383 17.201,7.84 3.623,0 17.201,-7.839 16.332,-8.383 16.296,-9.408 2.717,-1.569 v -15.68 l -0.905,0.482 -0.908,-0.482 v 15.68 l -13.579,-7.839 -0.034,1.025 -0.87,0.544 z"
         style="fill:#ffffff;fill-opacity:1;fill-rule:nonzero;stroke:none"
         id="path278"
         inkscape:connector-curvature="0" />
    </g>
  </g>
</svg>
