<svg xmlns:dc="http://purl.org/dc/elements/1.1/" xmlns:cc="http://creativecommons.org/ns#" xmlns:rdf="http://www.w3.org/1999/02/22-rdf-syntax-ns#" xmlns:svg="http://www.w3.org/2000/svg" xmlns="http://www.w3.org/2000/svg" xmlns:sodipodi="http://sodipodi.sourceforge.net/DTD/sodipodi-0.dtd" xmlns:inkscape="http://www.inkscape.org/namespaces/inkscape" version="1.1" xml:space="preserve" style="clip-rule:evenodd;fill-rule:evenodd;stroke-linejoin:round;stroke-miterlimit:2" id="svg150" sodipodi:docname="governo-federal-2023-logo-lula.svg" inkscape:version="0.92.0 r15299" inkscape:export-filename="C:\Users\suitedoalex\sites\governo-federal-2023-logo-lula-0.png" inkscape:export-xdpi="561.73712" inkscape:export-ydpi="561.73712" viewBox="110.34 49.54 754.32 336.91"><metadata id="metadata156"><rdf:RDF><cc:Work rdf:about=""><dc:format>image/svg+xml</dc:format><dc:type rdf:resource="http://purl.org/dc/dcmitype/StillImage"/><dc:title/></cc:Work></rdf:RDF></metadata><defs id="defs154"/><sodipodi:namedview pagecolor="#ffffff" bordercolor="#666666" borderopacity="1" objecttolerance="10" gridtolerance="10" guidetolerance="10" inkscape:pageopacity="0" inkscape:pageshadow="2" inkscape:window-width="1920" inkscape:window-height="1017" id="namedview152" showgrid="false" units="px" inkscape:zoom="0.89359596" inkscape:cx="226.46719" inkscape:cy="449.92703" inkscape:window-x="-8" inkscape:window-y="-8" inkscape:window-maximized="1" inkscape:current-layer="svg150"/><g transform="matrix(0.77437738,0,0,0.77437738,-1791.4261,-230.69164)" id="g148" inkscape:export-filename="C:\Users\suitedoalex\sites\governo-federal-2023-logo-lula-4.png" inkscape:export-xdpi="70.906044" inkscape:export-ydpi="70.906044"><g transform="translate(1982.62)" id="g146"><path d="M 905.076,457.668 1047.37,695.076 H 762.787 Z" style="fill:#fddb00" id="path2" inkscape:connector-curvature="0"/><g transform="matrix(1.08397,0,0,1,-324.434,0)" id="g6"><path d="m 902.44,457.668 142.29,237.408 H 902.44 Z" style="fill:#01d101" id="path4" inkscape:connector-curvature="0"/></g><g transform="translate(-1982.62)" id="g10"><path d="m 2767.11,658.863 -21.7,36.213 h 45.23 z" style="fill:#4e4e4e" id="path8" inkscape:connector-curvature="0"/></g><g transform="matrix(1.20387,0,0,1.20387,31.1642,57.0681)" id="g14"><path d="m 725.917,457.668 c 39.9,0 72.294,32.394 72.294,72.295 H 653.622 c 0,-39.901 32.394,-72.295 72.295,-72.295 z" style="fill:#193dff" id="path12" inkscape:connector-curvature="0"/></g><g transform="translate(-1982.62)" id="g18"><path d="m 2729.7,457.668 c 39.27,0 71.15,31.879 71.15,71.145 0,39.265 -31.88,71.144 -71.15,71.144 l -71.54,-13.923 -21.76,-128.366 z" style="fill:#193dff" id="path16" inkscape:connector-curvature="0"/></g><g transform="matrix(1.02029,0,0,0.991724,-29.3684,5.75215)" id="g22"><rect x="1366.64" y="614.37201" width="80.704002" height="80.704002" style="fill:#193dff" id="rect20"/></g><g transform="matrix(1.02029,0,0,0.991724,-111.71,5.75215)" id="g26"><rect x="1366.64" y="614.37201" width="80.704002" height="80.704002" style="fill:#4e4e4e" id="rect24"/></g><g transform="matrix(1.02029,0,0,1.94506,-111.71,-736.926)" id="g30"><rect x="1366.64" y="614.37201" width="80.704002" height="80.704002" style="fill:#fddb00" id="rect28"/></g><g transform="matrix(1.02029,0,0,2.93679,-208.116,-1346.21)" id="g34"><rect x="1366.64" y="614.37201" width="80.704002" height="80.704002" style="fill:#01d101" id="rect32"/></g><g transform="translate(-1982.62)" id="g38"><path d="m 3046.47,680.363 c -18.67,-13.769 -30.79,-35.918 -30.79,-60.877 0,-24.958 12.12,-47.108 30.79,-60.876 v -14.713 h 44.8 c 41.72,0 75.59,33.87 75.59,75.589 0,41.719 -33.87,75.59 -75.59,75.59 h -44.8 z" style="fill:#fddb00" id="path36" inkscape:connector-curvature="0"/></g><g transform="translate(-1982.62)" id="g42"><path d="m 3071.89,529.163 -2.91,14.734 v 16.885 h -29.27 c -28.45,0 -51.56,-23.102 -51.56,-51.557 0,-28.455 23.11,-51.557 51.56,-51.557 h 29.27 l 2.91,14.734 z" style="fill:#01d101" id="path40" inkscape:connector-curvature="0"/></g><g transform="matrix(1,0,0,1.00463,0,-2.51591)" id="g46"><rect x="1086.36" y="458.065" width="85.831001" height="85.831001" style="fill:#193dff" id="rect44"/></g><g transform="matrix(0.941657,0,0,1.56462,-17.4431,-155.918)" id="g50"><rect x="1086.36" y="458.065" width="85.831001" height="85.831001" style="fill:#ff0000" id="rect48"/></g><g transform="translate(-1982.62)" id="g54"><path d="m 2565.26,552.787 c 39.27,0 71.14,31.879 71.14,71.145 0,39.265 -31.87,71.144 -71.14,71.144 H 2455.87 V 552.787 Z" style="fill:#ff0000" id="path52" inkscape:connector-curvature="0"/></g><g transform="translate(-1982.62)" id="g58"><path d="m 2557.71,457.668 c 26.25,0 47.56,21.311 47.56,47.56 0,26.248 -21.31,47.559 -47.56,47.559 h -57.1 l 34.16,-95.119 z" style="fill:#193dff" id="path56" inkscape:connector-curvature="0"/></g><g transform="matrix(5.57805,0,0,5.57805,-2658.59,-1693.18)" id="g88"><path d="m 579.762,372.128 v 1.74 h 2.196 c -0.192,0.528 -0.744,0.96 -1.608,0.96 -1.236,0 -2.088,-0.888 -2.088,-2.112 0,-1.248 0.852,-2.172 2.052,-2.172 0.768,0 1.428,0.372 1.788,1.02 l 1.872,-1.116 c -0.756,-1.26 -2.136,-2.028 -3.636,-2.028 -2.376,0 -4.272,1.896 -4.272,4.284 0,2.388 1.884,4.26 4.284,4.26 2.256,0 3.96,-1.656 3.96,-4.2 v -0.636 z" style="fill-rule:nonzero" id="path60" inkscape:connector-curvature="0"/><path d="m 591.798,376.964 c 2.364,0 4.26,-1.896 4.26,-4.272 0,-2.376 -1.896,-4.272 -4.26,-4.272 -2.388,0 -4.284,1.896 -4.284,4.272 0,2.376 1.896,4.272 4.284,4.272 z m 0,-2.256 c -1.092,0 -1.932,-0.864 -1.932,-2.016 0,-1.152 0.84,-2.016 1.932,-2.016 1.068,0 1.896,0.864 1.896,2.016 0,1.152 -0.828,2.016 -1.896,2.016 z" style="fill-rule:nonzero" id="path62" inkscape:connector-curvature="0"/><path d="m 604.254,368.612 -1.92,5.028 -1.896,-5.028 h -2.364 l 3.156,8.16 h 2.196 l 3.192,-8.16 z" style="fill-rule:nonzero" id="path64" inkscape:connector-curvature="0"/><path d="m 615.27,370.604 v -1.992 h -5.844 v 8.16 h 5.844 v -1.992 h -3.636 v -1.212 h 2.4 v -1.752 h -2.4 v -1.212 z" style="fill-rule:nonzero" id="path66" inkscape:connector-curvature="0"/><path d="m 623.322,376.772 h 2.436 l -1.812,-3.144 c 0.864,-0.456 1.428,-1.32 1.428,-2.364 0,-1.512 -1.224,-2.652 -2.82,-2.652 h -3.948 v 8.16 h 2.172 v -2.82 h 0.924 z m -2.544,-6.204 h 1.536 c 0.528,0 0.84,0.36 0.84,0.768 0,0.396 -0.324,0.756 -0.84,0.756 h -1.536 z" style="fill-rule:nonzero" id="path68" inkscape:connector-curvature="0"/><path d="m 633.87,368.612 v 4.308 l -3.3,-4.308 h -1.848 v 8.16 h 2.172 v -4.296 l 3.288,4.296 h 1.86 v -8.16 z" style="fill-rule:nonzero" id="path70" inkscape:connector-curvature="0"/><path d="m 643.434,376.964 c 2.364,0 4.26,-1.896 4.26,-4.272 0,-2.376 -1.896,-4.272 -4.26,-4.272 -2.388,0 -4.284,1.896 -4.284,4.272 0,2.376 1.896,4.272 4.284,4.272 z m 0,-2.256 c -1.092,0 -1.932,-0.864 -1.932,-2.016 0,-1.152 0.84,-2.016 1.932,-2.016 1.068,0 1.896,0.864 1.896,2.016 0,1.152 -0.828,2.016 -1.896,2.016 z" style="fill-rule:nonzero" id="path72" inkscape:connector-curvature="0"/><path d="m 661.986,370.568 v -1.956 h -5.844 v 8.16 h 2.208 v -2.976 h 2.4 v -1.848 h -2.4 v -1.38 z" style="fill-rule:nonzero" id="path74" inkscape:connector-curvature="0"/><path d="m 671.07,370.604 v -1.992 h -5.844 v 8.16 h 5.844 v -1.992 h -3.636 v -1.212 h 2.4 v -1.752 h -2.4 v -1.212 z" style="fill-rule:nonzero" id="path76" inkscape:connector-curvature="0"/><path d="m 677.73,368.612 h -3.324 v 8.16 h 3.324 c 2.484,0 4.356,-1.74 4.356,-4.08 0,-2.34 -1.872,-4.08 -4.356,-4.08 z m -0.108,6.036 h -0.996 v -3.912 h 0.996 c 1.296,0 2.184,0.768 2.184,1.956 0,1.188 -0.888,1.956 -2.184,1.956 z" style="fill-rule:nonzero" id="path78" inkscape:connector-curvature="0"/><path d="m 691.038,370.604 v -1.992 h -5.844 v 8.16 h 5.844 v -1.992 h -3.636 v -1.212 h 2.4 v -1.752 h -2.4 v -1.212 z" style="fill-rule:nonzero" id="path80" inkscape:connector-curvature="0"/><path d="m 699.09,376.772 h 2.436 l -1.812,-3.144 c 0.864,-0.456 1.428,-1.32 1.428,-2.364 0,-1.512 -1.224,-2.652 -2.82,-2.652 h -3.948 v 8.16 h 2.172 v -2.82 h 0.924 z m -2.544,-6.204 h 1.536 c 0.528,0 0.84,0.36 0.84,0.768 0,0.396 -0.324,0.756 -0.84,0.756 h -1.536 z" style="fill-rule:nonzero" id="path82" inkscape:connector-curvature="0"/><path d="m 710.538,376.772 h 2.28 l -3.444,-8.16 h -2.088 l -3.408,8.16 h 2.292 l 0.564,-1.404 h 3.228 z m -3.012,-3.348 0.816,-2.004 0.816,2.004 z" style="fill-rule:nonzero" id="path84" inkscape:connector-curvature="0"/><path d="m 717.942,374.672 v -6.06 h -2.316 v 8.16 h 5.748 v -2.1 z" style="fill-rule:nonzero" id="path86" inkscape:connector-curvature="0"/></g><g transform="translate(-1982.62)" id="g92"><path d="m 2988.15,625.277 41.84,69.799 h -41.84 z" style="fill:#4e4e4e" id="path90" inkscape:connector-curvature="0"/></g><g transform="matrix(4.10943,0,0,4.10943,-1704.56,-761.458)" id="g128"><path d="m 553.764,375.62 c 0.448,0 0.82,-0.088 1.116,-0.264 0.296,-0.176 0.534,-0.406 0.714,-0.69 0.18,-0.284 0.308,-0.608 0.384,-0.972 0.076,-0.364 0.114,-0.738 0.114,-1.122 v -4.32 h 1.356 v 4.32 c 0,0.584 -0.068,1.134 -0.204,1.65 -0.136,0.516 -0.352,0.968 -0.648,1.356 -0.296,0.388 -0.678,0.694 -1.146,0.918 -0.468,0.224 -1.03,0.336 -1.686,0.336 -0.68,0 -1.254,-0.118 -1.722,-0.354 -0.468,-0.236 -0.846,-0.552 -1.134,-0.948 -0.288,-0.396 -0.496,-0.85 -0.624,-1.362 -0.128,-0.512 -0.192,-1.044 -0.192,-1.596 v -4.32 h 1.344 v 4.32 c 0,0.392 0.038,0.77 0.114,1.134 0.076,0.364 0.204,0.688 0.384,0.972 0.18,0.284 0.42,0.512 0.72,0.684 0.3,0.172 0.67,0.258 1.11,0.258 z" id="path94" inkscape:connector-curvature="0"/><path d="m 563.136,370.772 v 6 h -1.344 v -8.52 h 1.056 l 4.872,6.144 v -6.132 h 1.356 v 8.508 h -1.116 z" id="path96" inkscape:connector-curvature="0"/><rect x="573.552" y="368.25201" width="1.344" height="8.5200005" id="rect98"/><path d="m 581.88,368.252 h 1.176 l 3.36,8.52 H 585 l -0.9,-2.316 h -3.288 l -0.888,2.316 h -1.428 z m 1.956,5.208 -1.368,-3.66 -1.416,3.66 z m -0.612,-6.3 c -0.184,0 -0.344,-0.026 -0.48,-0.078 -0.136,-0.052 -0.262,-0.112 -0.378,-0.18 -0.116,-0.068 -0.23,-0.128 -0.342,-0.18 -0.112,-0.052 -0.232,-0.078 -0.36,-0.078 -0.136,0 -0.242,0.028 -0.318,0.084 -0.076,0.056 -0.134,0.118 -0.174,0.186 -0.04,0.068 -0.066,0.134 -0.078,0.198 -0.012,0.064 -0.018,0.1 -0.018,0.108 h -0.744 c 0,-0.064 0.02,-0.172 0.06,-0.324 0.04,-0.152 0.11,-0.306 0.21,-0.462 0.1,-0.156 0.232,-0.294 0.396,-0.414 0.164,-0.12 0.37,-0.18 0.618,-0.18 0.176,0 0.33,0.028 0.462,0.084 0.132,0.056 0.256,0.116 0.372,0.18 0.116,0.064 0.232,0.124 0.348,0.18 0.116,0.056 0.246,0.084 0.39,0.084 0.144,0 0.26,-0.028 0.348,-0.084 0.088,-0.056 0.154,-0.12 0.198,-0.192 0.044,-0.072 0.072,-0.138 0.084,-0.198 0.012,-0.06 0.018,-0.098 0.018,-0.114 h 0.756 c 0,0.048 -0.022,0.148 -0.066,0.3 -0.044,0.152 -0.118,0.308 -0.222,0.468 -0.104,0.16 -0.244,0.302 -0.42,0.426 -0.176,0.124 -0.396,0.186 -0.66,0.186 z" id="path100" inkscape:connector-curvature="0"/><path d="m 593.256,376.832 c -0.608,0 -1.162,-0.122 -1.662,-0.366 -0.5,-0.244 -0.93,-0.568 -1.29,-0.972 -0.36,-0.404 -0.638,-0.866 -0.834,-1.386 -0.196,-0.52 -0.294,-1.052 -0.294,-1.596 0,-0.568 0.104,-1.112 0.312,-1.632 0.208,-0.52 0.494,-0.98 0.858,-1.38 0.364,-0.4 0.796,-0.718 1.296,-0.954 0.5,-0.236 1.046,-0.354 1.638,-0.354 0.608,0 1.162,0.126 1.662,0.378 0.5,0.252 0.928,0.582 1.284,0.99 0.356,0.408 0.632,0.87 0.828,1.386 0.196,0.516 0.294,1.042 0.294,1.578 0,0.568 -0.102,1.112 -0.306,1.632 -0.204,0.52 -0.49,0.978 -0.858,1.374 -0.368,0.396 -0.802,0.712 -1.302,0.948 -0.5,0.236 -1.042,0.354 -1.626,0.354 z m -2.712,-4.32 c 0,0.4 0.064,0.788 0.192,1.164 0.128,0.376 0.31,0.708 0.546,0.996 0.236,0.288 0.522,0.518 0.858,0.69 0.336,0.172 0.712,0.258 1.128,0.258 0.432,0 0.814,-0.09 1.146,-0.27 0.332,-0.18 0.614,-0.418 0.846,-0.714 0.232,-0.296 0.408,-0.628 0.528,-0.996 0.12,-0.368 0.18,-0.744 0.18,-1.128 0,-0.408 -0.064,-0.798 -0.192,-1.17 -0.128,-0.372 -0.31,-0.7 -0.546,-0.984 -0.236,-0.284 -0.52,-0.512 -0.852,-0.684 -0.332,-0.172 -0.702,-0.258 -1.11,-0.258 -0.432,0 -0.816,0.09 -1.152,0.27 -0.336,0.18 -0.62,0.414 -0.852,0.702 -0.232,0.288 -0.41,0.618 -0.534,0.99 -0.124,0.372 -0.186,0.75 -0.186,1.134 z" id="path102" inkscape:connector-curvature="0"/><path d="m 612.66,375.584 v 1.188 h -5.844 v -8.52 h 5.736 v 1.188 h -4.392 v 2.424 h 3.804 v 1.116 h -3.804 v 2.604 z" id="path104" inkscape:connector-curvature="0"/><path d="m 622.128,376.772 v -8.52 h 3.708 c 0.384,0 0.738,0.08 1.062,0.24 0.324,0.16 0.602,0.37 0.834,0.63 0.232,0.26 0.414,0.556 0.546,0.888 0.132,0.332 0.198,0.67 0.198,1.014 0,0.288 -0.04,0.564 -0.12,0.828 -0.08,0.264 -0.192,0.508 -0.336,0.732 -0.144,0.224 -0.32,0.418 -0.528,0.582 -0.208,0.164 -0.436,0.286 -0.684,0.366 l 2.004,3.24 h -1.524 l -1.848,-2.964 h -1.968 v 2.964 z m 1.344,-4.152 h 2.352 c 0.192,0 0.366,-0.042 0.522,-0.126 0.156,-0.084 0.29,-0.2 0.402,-0.348 0.112,-0.148 0.2,-0.318 0.264,-0.51 0.064,-0.192 0.096,-0.396 0.096,-0.612 0,-0.216 -0.038,-0.42 -0.114,-0.612 -0.076,-0.192 -0.176,-0.36 -0.3,-0.504 -0.124,-0.144 -0.268,-0.258 -0.432,-0.342 -0.164,-0.084 -0.334,-0.126 -0.51,-0.126 h -2.28 z" id="path106" inkscape:connector-curvature="0"/><path d="m 638.46,375.584 v 1.188 h -5.844 v -8.52 h 5.736 v 1.188 h -4.392 v 2.424 h 3.804 v 1.116 h -3.804 v 2.604 z" id="path108" inkscape:connector-curvature="0"/><path d="m 641.688,372.452 c 0,-0.512 0.092,-1.022 0.276,-1.53 0.184,-0.508 0.454,-0.964 0.81,-1.368 0.356,-0.404 0.79,-0.73 1.302,-0.978 0.512,-0.248 1.092,-0.372 1.74,-0.372 0.776,0 1.44,0.172 1.992,0.516 0.552,0.344 0.968,0.792 1.248,1.344 L 648,370.772 c -0.12,-0.256 -0.264,-0.472 -0.432,-0.648 -0.168,-0.176 -0.352,-0.316 -0.552,-0.42 -0.2,-0.104 -0.408,-0.178 -0.624,-0.222 -0.216,-0.044 -0.424,-0.066 -0.624,-0.066 -0.448,0 -0.84,0.09 -1.176,0.27 -0.336,0.18 -0.618,0.418 -0.846,0.714 -0.228,0.296 -0.4,0.628 -0.516,0.996 -0.116,0.368 -0.174,0.736 -0.174,1.104 0,0.416 0.068,0.812 0.204,1.188 0.136,0.376 0.326,0.708 0.57,0.996 0.244,0.288 0.534,0.518 0.87,0.69 0.336,0.172 0.704,0.258 1.104,0.258 0.208,0 0.422,-0.026 0.642,-0.078 0.22,-0.052 0.432,-0.136 0.636,-0.252 0.204,-0.116 0.392,-0.262 0.564,-0.438 0.172,-0.176 0.314,-0.388 0.426,-0.636 l 1.116,0.636 c -0.136,0.32 -0.328,0.602 -0.576,0.846 -0.248,0.244 -0.528,0.45 -0.84,0.618 -0.312,0.168 -0.642,0.296 -0.99,0.384 -0.348,0.088 -0.69,0.132 -1.026,0.132 -0.6,0 -1.148,-0.128 -1.644,-0.384 -0.496,-0.256 -0.924,-0.59 -1.284,-1.002 -0.36,-0.412 -0.64,-0.88 -0.84,-1.404 -0.2,-0.524 -0.3,-1.058 -0.3,-1.602 z" id="path110" inkscape:connector-curvature="0"/><path d="m 656.448,376.832 c -0.608,0 -1.162,-0.122 -1.662,-0.366 -0.5,-0.244 -0.93,-0.568 -1.29,-0.972 -0.36,-0.404 -0.638,-0.866 -0.834,-1.386 -0.196,-0.52 -0.294,-1.052 -0.294,-1.596 0,-0.568 0.104,-1.112 0.312,-1.632 0.208,-0.52 0.494,-0.98 0.858,-1.38 0.364,-0.4 0.796,-0.718 1.296,-0.954 0.5,-0.236 1.046,-0.354 1.638,-0.354 0.608,0 1.162,0.126 1.662,0.378 0.5,0.252 0.928,0.582 1.284,0.99 0.356,0.408 0.632,0.87 0.828,1.386 0.196,0.516 0.294,1.042 0.294,1.578 0,0.568 -0.102,1.112 -0.306,1.632 -0.204,0.52 -0.49,0.978 -0.858,1.374 -0.368,0.396 -0.802,0.712 -1.302,0.948 -0.5,0.236 -1.042,0.354 -1.626,0.354 z m -2.712,-4.32 c 0,0.4 0.064,0.788 0.192,1.164 0.128,0.376 0.31,0.708 0.546,0.996 0.236,0.288 0.522,0.518 0.858,0.69 0.336,0.172 0.712,0.258 1.128,0.258 0.432,0 0.814,-0.09 1.146,-0.27 0.332,-0.18 0.614,-0.418 0.846,-0.714 0.232,-0.296 0.408,-0.628 0.528,-0.996 0.12,-0.368 0.18,-0.744 0.18,-1.128 0,-0.408 -0.064,-0.798 -0.192,-1.17 -0.128,-0.372 -0.31,-0.7 -0.546,-0.984 -0.236,-0.284 -0.52,-0.512 -0.852,-0.684 -0.332,-0.172 -0.702,-0.258 -1.11,-0.258 -0.432,0 -0.816,0.09 -1.152,0.27 -0.336,0.18 -0.62,0.414 -0.852,0.702 -0.232,0.288 -0.41,0.618 -0.534,0.99 -0.124,0.372 -0.186,0.75 -0.186,1.134 z" id="path112" inkscape:connector-curvature="0"/><path d="m 665.832,370.772 v 6 h -1.344 v -8.52 h 1.056 l 4.872,6.144 v -6.132 h 1.356 v 8.508 h -1.116 z" id="path114" inkscape:connector-curvature="0"/><path d="m 681.288,370.256 c -0.08,-0.088 -0.196,-0.182 -0.348,-0.282 -0.152,-0.1 -0.33,-0.194 -0.534,-0.282 -0.204,-0.088 -0.428,-0.16 -0.672,-0.216 -0.244,-0.056 -0.494,-0.084 -0.75,-0.084 -0.568,0 -0.986,0.104 -1.254,0.312 -0.268,0.208 -0.402,0.496 -0.402,0.864 0,0.208 0.042,0.378 0.126,0.51 0.084,0.132 0.214,0.248 0.39,0.348 0.176,0.1 0.396,0.188 0.66,0.264 0.264,0.076 0.572,0.158 0.924,0.246 0.432,0.104 0.822,0.22 1.17,0.348 0.348,0.128 0.642,0.284 0.882,0.468 0.24,0.184 0.426,0.41 0.558,0.678 0.132,0.268 0.198,0.594 0.198,0.978 0,0.432 -0.082,0.804 -0.246,1.116 -0.164,0.312 -0.388,0.566 -0.672,0.762 -0.284,0.196 -0.614,0.34 -0.99,0.432 -0.376,0.092 -0.78,0.138 -1.212,0.138 -0.648,0 -1.274,-0.098 -1.878,-0.294 -0.604,-0.196 -1.15,-0.482 -1.638,-0.858 l 0.612,-1.152 c 0.104,0.104 0.254,0.22 0.45,0.348 0.196,0.128 0.424,0.246 0.684,0.354 0.26,0.108 0.542,0.2 0.846,0.276 0.304,0.076 0.62,0.114 0.948,0.114 0.528,0 0.936,-0.092 1.224,-0.276 0.288,-0.184 0.432,-0.456 0.432,-0.816 0,-0.216 -0.054,-0.396 -0.162,-0.54 -0.108,-0.144 -0.262,-0.27 -0.462,-0.378 -0.2,-0.108 -0.444,-0.206 -0.732,-0.294 -0.288,-0.088 -0.616,-0.18 -0.984,-0.276 -0.424,-0.112 -0.794,-0.23 -1.11,-0.354 -0.316,-0.124 -0.578,-0.274 -0.786,-0.45 -0.208,-0.176 -0.366,-0.382 -0.474,-0.618 -0.108,-0.236 -0.162,-0.522 -0.162,-0.858 0,-0.416 0.08,-0.786 0.24,-1.11 0.16,-0.324 0.378,-0.596 0.654,-0.816 0.276,-0.22 0.602,-0.386 0.978,-0.498 0.376,-0.112 0.784,-0.168 1.224,-0.168 0.576,0 1.108,0.092 1.596,0.276 0.488,0.184 0.916,0.412 1.284,0.684 z" id="path116" inkscape:connector-curvature="0"/><path d="m 692.328,369.44 h -2.832 v 7.332 h -1.356 v -7.332 h -2.844 v -1.188 h 7.032 z" id="path118" inkscape:connector-curvature="0"/><path d="m 696.024,376.772 v -8.52 h 3.708 c 0.384,0 0.738,0.08 1.062,0.24 0.324,0.16 0.602,0.37 0.834,0.63 0.232,0.26 0.414,0.556 0.546,0.888 0.132,0.332 0.198,0.67 0.198,1.014 0,0.288 -0.04,0.564 -0.12,0.828 -0.08,0.264 -0.192,0.508 -0.336,0.732 -0.144,0.224 -0.32,0.418 -0.528,0.582 -0.208,0.164 -0.436,0.286 -0.684,0.366 l 2.004,3.24 h -1.524 l -1.848,-2.964 h -1.968 v 2.964 z m 1.344,-4.152 h 2.352 c 0.192,0 0.366,-0.042 0.522,-0.126 0.156,-0.084 0.29,-0.2 0.402,-0.348 0.112,-0.148 0.2,-0.318 0.264,-0.51 0.064,-0.192 0.096,-0.396 0.096,-0.612 0,-0.216 -0.038,-0.42 -0.114,-0.612 -0.076,-0.192 -0.176,-0.36 -0.3,-0.504 -0.124,-0.144 -0.268,-0.258 -0.432,-0.342 -0.164,-0.084 -0.334,-0.126 -0.51,-0.126 h -2.28 z" id="path120" inkscape:connector-curvature="0"/><path d="m 710.064,375.62 c 0.448,0 0.82,-0.088 1.116,-0.264 0.296,-0.176 0.534,-0.406 0.714,-0.69 0.18,-0.284 0.308,-0.608 0.384,-0.972 0.076,-0.364 0.114,-0.738 0.114,-1.122 v -4.32 h 1.356 v 4.32 c 0,0.584 -0.068,1.134 -0.204,1.65 -0.136,0.516 -0.352,0.968 -0.648,1.356 -0.296,0.388 -0.678,0.694 -1.146,0.918 -0.468,0.224 -1.03,0.336 -1.686,0.336 -0.68,0 -1.254,-0.118 -1.722,-0.354 -0.468,-0.236 -0.846,-0.552 -1.134,-0.948 -0.288,-0.396 -0.496,-0.85 -0.624,-1.362 -0.128,-0.512 -0.192,-1.044 -0.192,-1.596 v -4.32 h 1.344 v 4.32 c 0,0.392 0.038,0.77 0.114,1.134 0.076,0.364 0.204,0.688 0.384,0.972 0.18,0.284 0.42,0.512 0.72,0.684 0.3,0.172 0.67,0.258 1.11,0.258 z" id="path122" inkscape:connector-curvature="0"/><path d="m 731.244,368.252 h 1.176 l 3.36,8.52 h -1.416 l -0.9,-2.316 h -3.288 l -0.888,2.316 h -1.428 z m 1.956,5.208 -1.368,-3.66 -1.416,3.66 z m -0.612,-6.3 c -0.184,0 -0.344,-0.026 -0.48,-0.078 -0.136,-0.052 -0.262,-0.112 -0.378,-0.18 -0.116,-0.068 -0.23,-0.128 -0.342,-0.18 -0.112,-0.052 -0.232,-0.078 -0.36,-0.078 -0.136,0 -0.242,0.028 -0.318,0.084 -0.076,0.056 -0.134,0.118 -0.174,0.186 -0.04,0.068 -0.066,0.134 -0.078,0.198 -0.012,0.064 -0.018,0.1 -0.018,0.108 h -0.744 c 0,-0.064 0.02,-0.172 0.06,-0.324 0.04,-0.152 0.11,-0.306 0.21,-0.462 0.1,-0.156 0.232,-0.294 0.396,-0.414 0.164,-0.12 0.37,-0.18 0.618,-0.18 0.176,0 0.33,0.028 0.462,0.084 0.132,0.056 0.256,0.116 0.372,0.18 0.116,0.064 0.232,0.124 0.348,0.18 0.116,0.056 0.246,0.084 0.39,0.084 0.144,0 0.26,-0.028 0.348,-0.084 0.088,-0.056 0.154,-0.12 0.198,-0.192 0.044,-0.072 0.072,-0.138 0.084,-0.198 0.012,-0.06 0.018,-0.098 0.018,-0.114 h 0.756 c 0,0.048 -0.022,0.148 -0.066,0.3 -0.044,0.152 -0.118,0.308 -0.222,0.468 -0.104,0.16 -0.244,0.302 -0.42,0.426 -0.176,0.124 -0.396,0.186 -0.66,0.186 z" id="path124" inkscape:connector-curvature="0"/><path d="m 742.62,376.832 c -0.608,0 -1.162,-0.122 -1.662,-0.366 -0.5,-0.244 -0.93,-0.568 -1.29,-0.972 -0.36,-0.404 -0.638,-0.866 -0.834,-1.386 -0.196,-0.52 -0.294,-1.052 -0.294,-1.596 0,-0.568 0.104,-1.112 0.312,-1.632 0.208,-0.52 0.494,-0.98 0.858,-1.38 0.364,-0.4 0.796,-0.718 1.296,-0.954 0.5,-0.236 1.046,-0.354 1.638,-0.354 0.608,0 1.162,0.126 1.662,0.378 0.5,0.252 0.928,0.582 1.284,0.99 0.356,0.408 0.632,0.87 0.828,1.386 0.196,0.516 0.294,1.042 0.294,1.578 0,0.568 -0.102,1.112 -0.306,1.632 -0.204,0.52 -0.49,0.978 -0.858,1.374 -0.368,0.396 -0.802,0.712 -1.302,0.948 -0.5,0.236 -1.042,0.354 -1.626,0.354 z m -2.712,-4.32 c 0,0.4 0.064,0.788 0.192,1.164 0.128,0.376 0.31,0.708 0.546,0.996 0.236,0.288 0.522,0.518 0.858,0.69 0.336,0.172 0.712,0.258 1.128,0.258 0.432,0 0.814,-0.09 1.146,-0.27 0.332,-0.18 0.614,-0.418 0.846,-0.714 0.232,-0.296 0.408,-0.628 0.528,-0.996 0.12,-0.368 0.18,-0.744 0.18,-1.128 0,-0.408 -0.064,-0.798 -0.192,-1.17 -0.128,-0.372 -0.31,-0.7 -0.546,-0.984 -0.236,-0.284 -0.52,-0.512 -0.852,-0.684 -0.332,-0.172 -0.702,-0.258 -1.11,-0.258 -0.432,0 -0.816,0.09 -1.152,0.27 -0.336,0.18 -0.62,0.414 -0.852,0.702 -0.232,0.288 -0.41,0.618 -0.534,0.99 -0.124,0.372 -0.186,0.75 -0.186,1.134 z" id="path126" inkscape:connector-curvature="0"/></g><g transform="translate(-1982.62)" id="g132"><path d="m 3242.9,787.146 c -2.23,-0.08 -4.28,-0.602 -6.15,-1.567 -2.04,-1.052 -3.8,-2.425 -5.28,-4.118 -1.48,-1.693 -2.62,-3.616 -3.45,-5.77 -0.82,-2.153 -1.23,-4.347 -1.23,-6.583 0,-2.104 0.38,-4.2 1.13,-6.287 0.76,-2.088 1.87,-3.962 3.33,-5.622 1.47,-1.66 3.25,-3 5.35,-4.019 2.11,-1.019 4.49,-1.529 7.15,-1.529 3.19,0 5.92,0.707 8.19,2.121 2.27,1.413 3.98,3.254 5.13,5.523 l -4.34,2.909 c -0.49,-1.052 -1.09,-1.939 -1.78,-2.663 -0.69,-0.723 -1.44,-1.298 -2.27,-1.726 -0.82,-0.427 -1.67,-0.731 -2.56,-0.912 -0.89,-0.181 -1.74,-0.271 -2.56,-0.271 -1.84,0 -3.46,0.37 -4.84,1.109 -1.38,0.74 -2.54,1.718 -3.47,2.935 -0.94,1.216 -1.65,2.58 -2.12,4.093 -0.48,1.512 -0.72,3.024 -0.72,4.536 0,1.71 0.28,3.337 0.84,4.882 0.56,1.545 1.34,2.91 2.34,4.093 1.01,1.184 2.2,2.129 3.58,2.836 1.38,0.707 2.89,1.06 4.53,1.06 0.86,0 1.74,-0.107 2.64,-0.32 0.91,-0.214 1.78,-0.559 2.62,-1.036 0.83,-0.477 1.61,-1.077 2.31,-1.8 0.71,-0.723 1.29,-1.594 1.75,-2.614 l 4.59,2.614 c -0.56,1.315 -1.35,2.474 -2.37,3.477 -1.02,1.002 -2.17,1.849 -3.45,2.539 -1.28,0.691 -2.64,1.217 -4.07,1.578 -0.81,0.205 -1.61,0.352 -2.41,0.441 1.58,2.163 4.11,4.471 2.59,7.446 -2.11,4.148 -8.63,1.987 -10.66,1.107 l 1.37,-3.086 c 0,0 3.7,2.708 6.14,0.906 2.45,-1.817 -0.05,-3.832 -1.85,-6.282 z" id="path130" inkscape:connector-curvature="0"/></g><g transform="matrix(1,0,0,0.628352,0,258.324)" id="g136"><rect x="473.246" y="458.065" width="83.056999" height="237.011" style="fill:#fddb00" id="rect134"/></g><g transform="matrix(1,0,0,0.401327,0,273.834)" id="g140"><rect x="473.246" y="458.065" width="83.056999" height="237.011" style="fill:#01d101" id="rect138"/></g><g transform="matrix(0.649669,0,0,0.599344,67.494,183.368)" id="g144"><path d="m 902.44,457.668 142.29,237.408 H 902.44 Z" style="fill:#fddb00" id="path142" inkscape:connector-curvature="0"/></g></g></g></svg>