<svg xmlns:dc="http://purl.org/dc/elements/1.1/" xmlns:cc="http://creativecommons.org/ns#" xmlns:rdf="http://www.w3.org/1999/02/22-rdf-syntax-ns#" xmlns:svg="http://www.w3.org/2000/svg" xmlns="http://www.w3.org/2000/svg" xmlns:sodipodi="http://sodipodi.sourceforge.net/DTD/sodipodi-0.dtd" xmlns:inkscape="http://www.inkscape.org/namespaces/inkscape" version="1.1" id="svg1289" inkscape:export-filename="C:\Users\suitedoalex\sites\bndes-logo-0.png" inkscape:export-xdpi="148.63" inkscape:export-ydpi="148.63" inkscape:version="0.92.4 (5da689c313, 2019-01-14)" sodipodi:docname="bndes-logo.svg" viewBox="64.12 289.44 571.76 121.12">
  <defs id="defs1283"/>
  <sodipodi:namedview id="base" pagecolor="#ffffff" bordercolor="#666666" borderopacity="1.0" inkscape:pageopacity="0.0" inkscape:pageshadow="2" inkscape:zoom="0.175" inkscape:cx="530.23025" inkscape:cy="1168.4127" inkscape:document-units="mm" inkscape:current-layer="layer1" showgrid="false" inkscape:window-width="1600" inkscape:window-height="837" inkscape:window-x="-8" inkscape:window-y="-8" inkscape:window-maximized="1"/>
  <metadata id="metadata1286">
    <rdf:RDF>
      <cc:Work rdf:about="">
        <dc:format>image/svg+xml</dc:format>
        <dc:type rdf:resource="http://purl.org/dc/dcmitype/StillImage"/>
        <dc:title/>
      </cc:Work>
    </rdf:RDF>
  </metadata>
  <g inkscape:label="Layer 1" inkscape:groupmode="layer" id="layer1" transform="translate(0,403)">
    <path d="m 98.061686,-70.941883 c -14.19585,0 -26.69165,7.512425 -33.941403,18.877896 V 5.6888516 h 56.229557 c 11.0199,-7.4477562 18.29121,-20.2984746 18.29121,-34.8713106 0,-23.053804 -18.16429,-41.759424 -40.579364,-41.759424 M 64.120283,-113.56238 H 180.06041 V 5.6888516 H 133.21235 L 179.6041,-42.011622 110.51204,-113.08878 64.120283,-65.366751" style="fill:#009748;fill-opacity:1;fill-rule:nonzero;stroke:none;stroke-width:0.21525499" id="path34" inkscape:connector-curvature="0" inkscape:export-xdpi="17.769712" inkscape:export-ydpi="17.769712"/>
    <path d="m 288.54677,-75.376108 c -0.62439,-9.19142 -4.42343,-16.122657 -11.30087,-20.578441 -5.60311,-3.6593 -13.33937,-5.575031 -22.36717,-5.575031 H 223.71198 L 209.18227,5.7319648 h 30.34231 c 19.30623,0 32.8738,-4.1760132 40.33672,-12.4202411 4.89265,-5.4028667 7.06679,-12.5278397 6.48988,-21.1810947 -0.78102,-11.494607 -6.24673,-19.43752 -15.17548,-22.300446 10.86604,-3.422549 18.1525,-13.690216 17.37107,-25.206291 m -27.90344,56.891891 c -4.46016,4.907816 -12.93473,5.596594 -21.42648,5.596594 h -5.86578 l 3.81651,-28.413656 h 5.75809 c 10.39031,0 20.10474,1.420685 20.80004,11.688343 0.32542,4.821677 -0.68441,8.459528 -3.08238,11.128719 m 2.82407,-45.784729 c -3.91973,4.348079 -11.39984,5.252148 -16.97925,5.252148 h -6.87958 l 3.37731,-23.893302 h 6.3414 c 8.53926,0 16.25182,0.732207 16.8502,9.578881 0.25424,3.745439 -0.66102,6.802092 -2.71008,9.062273 m 129.79448,-37.260634 h -21.36616 l -10.91568,77.276494 -26.37079,-77.276494 H 307.11033 L 291.97584,5.7319648 h 21.67615 l 10.41837,-77.9223628 25.96829,77.9223628 h 27.94016 z m 76.46935,8.976133 c 10.62064,7.684596 16.58324,20.126306 17.72834,36.937747 0.6905,10.203085 -0.0915,29.489895 -13.2209,43.998052 -10.42265,11.51617093 -26.31925,17.3496128 -47.24203,17.3496128 h -35.64408 l 14.6912,-107.2615448 h 31.61227 c 13.05737,0 23.84816,3.013531 32.0752,8.976133 m -14.80307,68.730839 c 6.97852,-7.706064 9.99207,-19.394406 8.94805,-34.742156 C 462.83872,-73.80481 451.0191,-82.9101 432.25743,-82.9101 h -6.20788 l -9.48634,70.022477 h 8.35193 c 13.3479,0 23.44553,-3.680858 30.01301,-10.934985 m 69.622,-59.087492 h 40.02024 l 2.20201,-18.61948 H 504.53358 L 489.85114,5.7319648 h 62.98789 l 2.68415,-18.6195878 h -40.46576 l 3.73465,-27.509587 h 35.91318 l 2.35708,-18.619588 h -35.75177 z m 110.51194,-15.692079 0.81763,0.34474 -4.10279,19.437523 -1.12791,-0.580679 c -6.63205,-3.379533 -14.34889,-5.316826 -21.1703,-5.316826 -4.41063,0 -10.21388,1.20549 -13.27052,4.584927 -1.56703,1.722106 -2.27096,3.89615 -2.1052,6.41463 0.4627,6.73752 6.94204,10.50441 14.43931,14.874158 9.95341,5.811877 22.34346,13.02289 23.51021,30.221794 0.69357,10.181528 -1.75434,18.425756 -7.26491,24.5390617 -6.89464,7.5984665 -18.43012,11.6452296 -33.37526,11.6452296 -9.07081,0 -19.13407,-2.0018736 -29.90543,-5.9624895 l -0.8695,-0.3010251 4.52687,-20.0187087 1.08062,0.495254 c 7.50806,3.465574 16.24957,7.146432 25.14385,7.146432 5.99706,0 11.19756,-1.937293 14.26072,-5.338286 2.36777,-2.626183 3.43324,-5.984161 3.16202,-10.030914 -0.54713,-8.007485 -7.49302,-11.839062 -15.5306,-16.294834 -9.96421,-5.510465 -21.25645,-11.774385 -22.33707,-27.724773 -0.59796,-8.782409 1.68337,-16.101108 6.79132,-21.740825 6.48998,-7.167989 17.19026,-11.12862 30.10769,-11.12862 10.25475,0 19.41394,1.59286 27.21905,4.735551" style="fill:#1a468e;fill-opacity:1;fill-rule:nonzero;stroke:none;stroke-width:0.21525499" id="path36" inkscape:connector-curvature="0" inkscape:export-xdpi="17.769712" inkscape:export-ydpi="17.769712"/>
  </g>
</svg>