<?xml version="1.0" standalone="no"?>
<!DOCTYPE svg PUBLIC "-//W3C//DTD SVG 20010904//EN"
 "http://www.w3.org/TR/2001/REC-SVG-20010904/DTD/svg10.dtd">
<svg version="1.0" xmlns="http://www.w3.org/2000/svg"
 width="1182.000000pt" height="1182.000000pt" viewBox="0 0 1182.000000 1182.000000"
 preserveAspectRatio="xMidYMid meet">
<metadata>
Created by potrace 1.14, written by Peter Selinger 2001-2017
</metadata>
<g transform="translate(0.000000,1182.000000) scale(0.100000,-0.100000)"
fill="#000000" stroke="none">
<path d="M3440 9604 c-459 -42 -840 -135 -1215 -299 -950 -413 -1684 -1208
-2020 -2185 -88 -256 -146 -518 -182 -812 -15 -130 -17 -328 -20 -2120 l-4
-1978 1480 0 1481 0 0 1915 c0 1699 2 1924 16 1992 52 251 242 443 512 515
108 28 287 28 395 0 247 -67 440 -257 519 -512 l23 -75 3 -1917 2 -1918 1480
0 1480 0 0 1883 c0 1875 -3 2076 -35 2317 -186 1383 -1143 2550 -2461 3000
-397 135 -711 189 -1144 194 -146 2 -285 2 -310 0z"/>
<path d="M7890 9604 c-19 -2 -87 -9 -150 -15 -425 -40 -897 -180 -1290 -382
-116 -60 -297 -164 -304 -176 -3 -4 37 -41 87 -82 341 -284 653 -654 878
-1042 234 -402 389 -823 474 -1281 14 -77 27 -141 29 -144 2 -2 25 13 50 32
118 90 272 138 451 139 145 1 212 -14 344 -79 77 -38 110 -62 176 -128 122
-121 188 -247 214 -407 7 -43 11 -687 11 -1946 l0 -1883 1480 0 1481 0 -4
2002 c-4 2175 -1 2051 -58 2368 -194 1072 -859 2008 -1814 2552 -414 236 -895
393 -1385 453 -118 15 -592 28 -670 19z"/>
</g>
</svg>
